<?xml version="1.0" encoding="UTF-8" standalone="no"?>
<svg
   xmlns:dc="http://purl.org/dc/elements/1.1/"
   xmlns:cc="http://creativecommons.org/ns#"
   xmlns:rdf="http://www.w3.org/1999/02/22-rdf-syntax-ns#"
   xmlns:svg="http://www.w3.org/2000/svg"
   xmlns="http://www.w3.org/2000/svg"
   id="svg8"
   version="1.1"
   viewBox="0 0 29.258381 18.338524"
   height="18.338524mm"
   width="29.258381mm">
  <defs
     id="defs2" />
  <metadata
     id="metadata5">
    <rdf:RDF>
      <cc:Work
         rdf:about="">
        <dc:format>image/svg+xml</dc:format>
        <dc:type
           rdf:resource="http://purl.org/dc/dcmitype/StillImage" />
        <dc:title></dc:title>
      </cc:Work>
    </rdf:RDF>
  </metadata>
  <g
     transform="translate(590.83037,48.611284)"
     id="layer1">
    <g
       transform="translate(-102.89877,-19.377041)"
       id="g853">
      <path
         style="color:#000000;font-style:normal;font-variant:normal;font-weight:normal;font-stretch:normal;font-size:medium;line-height:normal;font-family:sans-serif;font-variant-ligatures:normal;font-variant-position:normal;font-variant-caps:normal;font-variant-numeric:normal;font-variant-alternates:normal;font-feature-settings:normal;text-indent:0;text-align:start;text-decoration:none;text-decoration-line:none;text-decoration-style:solid;text-decoration-color:#000000;letter-spacing:normal;word-spacing:normal;text-transform:none;writing-mode:lr-tb;direction:ltr;text-orientation:mixed;dominant-baseline:auto;baseline-shift:baseline;text-anchor:start;white-space:normal;shape-padding:0;clip-rule:nonzero;display:inline;overflow:visible;visibility:visible;opacity:1;isolation:auto;mix-blend-mode:normal;color-interpolation:sRGB;color-interpolation-filters:linearRGB;solid-color:#000000;solid-opacity:1;vector-effect:none;fill:#800000;fill-opacity:1;fill-rule:nonzero;stroke:none;stroke-width:1.73000002;stroke-linecap:butt;stroke-linejoin:miter;stroke-miterlimit:4;stroke-dasharray:none;stroke-dashoffset:0;stroke-opacity:1;color-rendering:auto;image-rendering:auto;shape-rendering:auto;text-rendering:auto;enable-background:accumulate"
         d="m -481.35165,-29.234243 c -3.61024,0 -6.57995,2.866276 -6.57995,6.412011 -2e-5,3.545735 2.96971,6.414079 6.57995,6.414079 h 0.39997 v -1.730127 h -0.39997 c -2.70261,0 -4.8519,-2.101329 -4.8519,-4.683952 0,-2.582622 2.14929,-4.681369 4.8519,-4.681369 h 7.07814 c 2.70258,0 4.84931,2.098747 4.84931,4.681369 0,2.582623 -2.14673,4.683952 -4.84931,4.683952 h -0.99841 v 1.730127 h 0.99841 c 3.61024,0 6.57995,-2.868344 6.57995,-6.414079 0,-3.545735 -2.96971,-6.412011 -6.57995,-6.412011 z"
         id="path842" />
      <path
         id="path849"
         d="m -465.25317,-10.895719 c 3.61024,0 6.57995,-2.866276 6.57995,-6.412011 3e-5,-3.545735 -2.96971,-6.414079 -6.57995,-6.414079 h -0.39997 v 1.730127 h 0.39997 c 2.70262,0 4.85191,2.101329 4.85191,4.683952 0,2.582622 -2.14929,4.681369 -4.85191,4.681369 h -7.07813 c -2.70259,0 -4.84931,-2.098747 -4.84931,-4.681369 0,-2.582623 2.14672,-4.683952 4.84931,-4.683952 h 0.99841 v -1.730127 h -0.99841 c -3.61024,0 -6.57995,2.868344 -6.57995,6.414079 0,3.545735 2.96971,6.412011 6.57995,6.412011 z"
         style="color:#000000;font-style:normal;font-variant:normal;font-weight:normal;font-stretch:normal;font-size:medium;line-height:normal;font-family:sans-serif;font-variant-ligatures:normal;font-variant-position:normal;font-variant-caps:normal;font-variant-numeric:normal;font-variant-alternates:normal;font-feature-settings:normal;text-indent:0;text-align:start;text-decoration:none;text-decoration-line:none;text-decoration-style:solid;text-decoration-color:#000000;letter-spacing:normal;word-spacing:normal;text-transform:none;writing-mode:lr-tb;direction:ltr;text-orientation:mixed;dominant-baseline:auto;baseline-shift:baseline;text-anchor:start;white-space:normal;shape-padding:0;clip-rule:nonzero;display:inline;overflow:visible;visibility:visible;opacity:1;isolation:auto;mix-blend-mode:normal;color-interpolation:sRGB;color-interpolation-filters:linearRGB;solid-color:#000000;solid-opacity:1;vector-effect:none;fill:#800000;fill-opacity:1;fill-rule:nonzero;stroke:none;stroke-width:1.73000002;stroke-linecap:butt;stroke-linejoin:miter;stroke-miterlimit:4;stroke-dasharray:none;stroke-dashoffset:0;stroke-opacity:1;color-rendering:auto;image-rendering:auto;shape-rendering:auto;text-rendering:auto;enable-background:accumulate" />
    </g>
  </g>
</svg>
